<svg width="45" height="47" viewBox="0 0 45 47" fill="none" xmlns="http://www.w3.org/2000/svg">
<path d="M22.5 31.5208C20.3727 31.5208 18.3326 30.6758 16.8284 29.1716C15.3242 27.6674 14.4792 25.6272 14.4792 23.5C14.4792 21.3727 15.3242 19.3326 16.8284 17.8284C18.3326 16.3242 20.3727 15.4791 22.5 15.4791C24.6273 15.4791 26.6674 16.3242 28.1716 17.8284C29.6758 19.3326 30.5208 21.3727 30.5208 23.5C30.5208 25.6272 29.6758 27.6674 28.1716 29.1716C26.6674 30.6758 24.6273 31.5208 22.5 31.5208ZM39.5271 25.7229C39.6188 24.9896 39.6875 24.2562 39.6875 23.5C39.6875 22.7437 39.6188 21.9875 39.5271 21.2083L44.3625 17.4729C44.7979 17.1291 44.9125 16.5104 44.6375 16.0062L40.0542 8.07706C39.7792 7.5729 39.1604 7.36665 38.6562 7.5729L32.95 9.86456C31.7583 8.97081 30.5208 8.19165 29.0771 7.61873L28.2292 1.54581C28.1375 0.995813 27.6562 0.583313 27.0833 0.583313H17.9167C17.3437 0.583313 16.8625 0.995813 16.7708 1.54581L15.9229 7.61873C14.4792 8.19165 13.2417 8.97081 12.05 9.86456L6.34375 7.5729C5.83958 7.36665 5.22083 7.5729 4.94583 8.07706L0.362498 16.0062C0.0645815 16.5104 0.202082 17.1291 0.637498 17.4729L5.47292 21.2083C5.38125 21.9875 5.3125 22.7437 5.3125 23.5C5.3125 24.2562 5.38125 24.9896 5.47292 25.7229L0.637498 29.5271C0.202082 29.8708 0.0645815 30.4896 0.362498 30.9937L4.94583 38.9229C5.22083 39.4271 5.83958 39.6104 6.34375 39.4271L12.05 37.1125C13.2417 38.0291 14.4792 38.8083 15.9229 39.3812L16.7708 45.4541C16.8625 46.0041 17.3437 46.4166 17.9167 46.4166H27.0833C27.6562 46.4166 28.1375 46.0041 28.2292 45.4541L29.0771 39.3812C30.5208 38.7854 31.7583 38.0291 32.95 37.1125L38.6562 39.4271C39.1604 39.6104 39.7792 39.4271 40.0542 38.9229L44.6375 30.9937C44.9125 30.4896 44.7979 29.8708 44.3625 29.5271L39.5271 25.7229Z" fill="#8F2918"/>
</svg>
