<svg width="45" height="46" viewBox="0 0 45 46" fill="none" xmlns="http://www.w3.org/2000/svg">
<path d="M23.1625 12.4025C23.6042 11.9975 24.1342 11.75 24.7084 11.75C25.3046 11.75 25.8125 11.9975 26.2763 12.4025C26.6959 12.875 26.9167 13.415 26.9167 14C26.9167 14.6075 26.6959 15.125 26.2763 15.5975C25.8125 16.025 25.3046 16.25 24.7084 16.25C24.1342 16.25 23.6042 16.025 23.1625 15.5975C22.7429 15.125 22.5 14.6075 22.5 14C22.5 13.415 22.7429 12.875 23.1625 12.4025ZM17.6417 22.9325C17.6417 22.9325 22.4338 19.0625 24.1784 18.905C25.8125 18.77 25.4813 20.6825 25.3267 21.6725L25.3046 21.8075C24.9954 23 24.62 24.44 24.2446 25.8125C23.4054 28.94 22.5884 32 22.7871 32.5625C23.0079 33.3275 24.3771 32.36 25.3709 31.685C25.5034 31.595 25.6138 31.505 25.7242 31.4375C25.7242 31.4375 25.9009 31.2575 26.0775 31.505C26.1217 31.5725 26.1659 31.64 26.21 31.685C26.4088 32 26.5192 32.1125 26.2542 32.2925L26.1659 32.3375C25.68 32.675 23.6042 34.16 22.765 34.7C21.8596 35.3075 18.3925 37.3325 18.9225 33.395C19.3863 30.6275 20.0046 28.2425 20.4904 26.375C21.3959 23 21.7934 21.47 19.7617 22.7975C18.9446 23.2925 18.4588 23.6075 18.1717 23.81C17.9288 23.99 17.9067 23.99 17.7521 23.6975L17.6859 23.5625L17.5754 23.3825C17.4209 23.1575 17.4209 23.135 17.6417 22.9325ZM44.5834 23C44.5834 35.375 34.6459 45.5 22.5 45.5C10.3542 45.5 0.416687 35.375 0.416687 23C0.416687 10.625 10.3542 0.5 22.5 0.5C34.6459 0.5 44.5834 10.625 44.5834 23ZM40.1667 23C40.1667 13.055 32.2609 5 22.5 5C12.7392 5 4.83335 13.055 4.83335 23C4.83335 32.945 12.7392 41 22.5 41C32.2609 41 40.1667 32.945 40.1667 23Z" fill="#8F2918"/>
</svg>
